<?xml version="1.0" encoding="UTF-8" standalone="no"?>
<!DOCTYPE svg PUBLIC "-//W3C//DTD SVG 1.1//EN"
 "http://www.w3.org/Graphics/SVG/1.1/DTD/svg11.dtd">
<!-- Generated by graphviz version 2.47.3 (20210619.1520)
 -->
<!-- Title: dependencies Pages: 1 -->
<svg width="280pt" height="247pt"
 viewBox="0.00 0.00 280.00 246.80" xmlns="http://www.w3.org/2000/svg" xmlns:xlink="http://www.w3.org/1999/xlink">
<g id="graph0" class="graph" transform="scale(1 1) rotate(0) translate(4 242.8)">
<title>dependencies</title>
<polygon fill="white" stroke="transparent" points="-4,4 -4,-242.8 276,-242.8 276,4 -4,4"/>
<text text-anchor="middle" x="136" y="-8.2" font-family="sans-serif" font-size="14.00">dependencies</text>
<g id="clust1" class="cluster">
<title>cluster_LoggerModule</title>
<polygon fill="none" stroke="black" stroke-dasharray="1,5" points="8,-32.8 8,-230.8 264,-230.8 264,-32.8 8,-32.8"/>
</g>
<g id="clust4" class="cluster">
<title>cluster_LoggerModule_exports</title>
<polygon fill="none" stroke="black" points="16,-170.8 16,-222.8 256,-222.8 256,-170.8 16,-170.8"/>
</g>
<g id="clust6" class="cluster">
<title>cluster_LoggerModule_providers</title>
<polygon fill="none" stroke="black" points="59,-40.8 59,-92.8 213,-92.8 213,-40.8 59,-40.8"/>
</g>
<!-- LogInterceptor  -->
<g id="node1" class="node">
<title>LogInterceptor </title>
<polygon fill="#fb8072" stroke="black" points="247.96,-214.8 144.04,-214.8 144.04,-178.8 247.96,-178.8 247.96,-214.8"/>
<text text-anchor="middle" x="196" y="-192.6" font-family="Times,serif" font-size="14.00">LogInterceptor </text>
</g>
<!-- LoggerService  -->
<g id="node2" class="node">
<title>LoggerService </title>
<polygon fill="#fb8072" stroke="black" points="125.91,-214.8 24.09,-214.8 24.09,-178.8 125.91,-178.8 125.91,-214.8"/>
<text text-anchor="middle" x="75" y="-192.6" font-family="Times,serif" font-size="14.00">LoggerService </text>
</g>
<!-- LoggerModule -->
<g id="node3" class="node">
<title>LoggerModule</title>
<polygon fill="#8dd3c7" stroke="black" points="185.98,-149.8 182.98,-153.8 161.98,-153.8 158.98,-149.8 86.02,-149.8 86.02,-113.8 185.98,-113.8 185.98,-149.8"/>
<text text-anchor="middle" x="136" y="-127.6" font-family="Times,serif" font-size="14.00">LoggerModule</text>
</g>
<!-- LoggerModule&#45;&gt;LogInterceptor  -->
<g id="edge1" class="edge">
<title>LoggerModule&#45;&gt;LogInterceptor </title>
<path fill="none" stroke="black" stroke-dasharray="5,2" d="M165.13,-149.91C165.13,-149.91 165.13,-168.79 165.13,-168.79"/>
<polygon fill="black" stroke="black" points="161.63,-168.79 165.13,-178.79 168.63,-168.79 161.63,-168.79"/>
</g>
<!-- LoggerModule&#45;&gt;LoggerService  -->
<g id="edge2" class="edge">
<title>LoggerModule&#45;&gt;LoggerService </title>
<path fill="none" stroke="black" stroke-dasharray="5,2" d="M105.98,-149.91C105.98,-149.91 105.98,-168.79 105.98,-168.79"/>
<polygon fill="black" stroke="black" points="102.48,-168.79 105.98,-178.79 109.48,-168.79 102.48,-168.79"/>
</g>
<!-- LogInterceptor -->
<g id="node4" class="node">
<title>LogInterceptor</title>
<ellipse fill="#fdb462" stroke="black" cx="136" cy="-66.8" rx="68.9" ry="18"/>
<text text-anchor="middle" x="136" y="-62.6" font-family="Times,serif" font-size="14.00">LogInterceptor</text>
</g>
<!-- LogInterceptor&#45;&gt;LoggerModule -->
<g id="edge3" class="edge">
<title>LogInterceptor&#45;&gt;LoggerModule</title>
<path fill="none" stroke="black" d="M136,-84.91C136,-84.91 136,-103.79 136,-103.79"/>
<polygon fill="black" stroke="black" points="132.5,-103.79 136,-113.79 139.5,-103.79 132.5,-103.79"/>
</g>
</g>
</svg>
