<?xml version="1.0" encoding="UTF-8" standalone="no"?>
<!DOCTYPE svg PUBLIC "-//W3C//DTD SVG 1.1//EN"
 "http://www.w3.org/Graphics/SVG/1.1/DTD/svg11.dtd">
<!-- Generated by graphviz version 2.47.3 (20210619.1520)
 -->
<!-- Title: dependencies Pages: 1 -->
<svg width="294pt" height="247pt"
 viewBox="0.00 0.00 294.00 246.80" xmlns="http://www.w3.org/2000/svg" xmlns:xlink="http://www.w3.org/1999/xlink">
<g id="graph0" class="graph" transform="scale(1 1) rotate(0) translate(4 242.8)">
<title>dependencies</title>
<polygon fill="white" stroke="transparent" points="-4,4 -4,-242.8 290,-242.8 290,4 -4,4"/>
<text text-anchor="middle" x="143" y="-8.2" font-family="sans-serif" font-size="14.00">dependencies</text>
<g id="clust1" class="cluster">
<title>cluster_LoginModule</title>
<polygon fill="none" stroke="black" stroke-dasharray="1,5" points="8,-32.8 8,-230.8 278,-230.8 278,-32.8 8,-32.8"/>
</g>
<g id="clust3" class="cluster">
<title>cluster_LoginModule_imports</title>
<polygon fill="none" stroke="black" points="166,-40.8 166,-92.8 270,-92.8 270,-40.8 166,-40.8"/>
</g>
<g id="clust4" class="cluster">
<title>cluster_LoginModule_exports</title>
<polygon fill="none" stroke="black" points="96,-170.8 96,-222.8 206,-222.8 206,-170.8 96,-170.8"/>
</g>
<g id="clust6" class="cluster">
<title>cluster_LoginModule_providers</title>
<polygon fill="none" stroke="black" points="16,-40.8 16,-92.8 158,-92.8 158,-40.8 16,-40.8"/>
</g>
<!-- AuthModule -->
<g id="node1" class="node">
<title>AuthModule</title>
<polygon fill="#8dd3c7" stroke="black" points="261.55,-84.8 258.55,-88.8 237.55,-88.8 234.55,-84.8 174.45,-84.8 174.45,-48.8 261.55,-48.8 261.55,-84.8"/>
<text text-anchor="middle" x="218" y="-62.6" font-family="Times,serif" font-size="14.00">AuthModule</text>
</g>
<!-- LoginModule -->
<g id="node2" class="node">
<title>LoginModule</title>
<polygon fill="#8dd3c7" stroke="black" points="197.49,-149.8 194.49,-153.8 173.49,-153.8 170.49,-149.8 104.51,-149.8 104.51,-113.8 197.49,-113.8 197.49,-149.8"/>
<text text-anchor="middle" x="151" y="-127.6" font-family="Times,serif" font-size="14.00">LoginModule</text>
</g>
<!-- AuthModule&#45;&gt;LoginModule -->
<g id="edge1" class="edge">
<title>AuthModule&#45;&gt;LoginModule</title>
<path fill="none" stroke="black" d="M185.86,-84.91C185.86,-84.91 185.86,-103.79 185.86,-103.79"/>
<polygon fill="black" stroke="black" points="182.36,-103.79 185.86,-113.79 189.36,-103.79 182.36,-103.79"/>
</g>
<!-- LoginService  -->
<g id="node3" class="node">
<title>LoginService </title>
<polygon fill="#fb8072" stroke="black" points="198.42,-214.8 103.58,-214.8 103.58,-178.8 198.42,-178.8 198.42,-214.8"/>
<text text-anchor="middle" x="151" y="-192.6" font-family="Times,serif" font-size="14.00">LoginService </text>
</g>
<!-- LoginModule&#45;&gt;LoginService  -->
<g id="edge2" class="edge">
<title>LoginModule&#45;&gt;LoginService </title>
<path fill="none" stroke="black" stroke-dasharray="5,2" d="M151,-149.91C151,-149.91 151,-168.79 151,-168.79"/>
<polygon fill="black" stroke="black" points="147.5,-168.79 151,-178.79 154.5,-168.79 147.5,-168.79"/>
</g>
<!-- LoginService -->
<g id="node4" class="node">
<title>LoginService</title>
<ellipse fill="#fdb462" stroke="black" cx="87" cy="-66.8" rx="63.12" ry="18"/>
<text text-anchor="middle" x="87" y="-62.6" font-family="Times,serif" font-size="14.00">LoginService</text>
</g>
<!-- LoginService&#45;&gt;LoginModule -->
<g id="edge3" class="edge">
<title>LoginService&#45;&gt;LoginModule</title>
<path fill="none" stroke="black" d="M127.28,-80.9C127.28,-80.9 127.28,-103.52 127.28,-103.52"/>
<polygon fill="black" stroke="black" points="123.78,-103.52 127.28,-113.52 130.78,-103.52 123.78,-103.52"/>
</g>
</g>
</svg>
