<?xml version="1.0" encoding="UTF-8" standalone="no"?>
<!DOCTYPE svg PUBLIC "-//W3C//DTD SVG 1.1//EN"
 "http://www.w3.org/Graphics/SVG/1.1/DTD/svg11.dtd">
<!-- Generated by graphviz version 2.47.3 (20210619.1520)
 -->
<!-- Title: dependencies Pages: 1 -->
<svg width="711pt" height="174pt"
 viewBox="0.00 0.00 711.00 173.80" xmlns="http://www.w3.org/2000/svg" xmlns:xlink="http://www.w3.org/1999/xlink">
<g id="graph0" class="graph" transform="scale(1 1) rotate(0) translate(4 169.8)">
<title>dependencies</title>
<polygon fill="white" stroke="transparent" points="-4,4 -4,-169.8 707,-169.8 707,4 -4,4"/>
<text text-anchor="middle" x="351.5" y="-8.2" font-family="sans-serif" font-size="14.00">dependencies</text>
<g id="clust1" class="cluster">
<title>cluster_AppModule</title>
<polygon fill="none" stroke="black" stroke-dasharray="1,5" points="8,-32.8 8,-157.8 695,-157.8 695,-32.8 8,-32.8"/>
</g>
<g id="clust3" class="cluster">
<title>cluster_AppModule_imports</title>
<polygon fill="none" stroke="black" points="16,-40.8 16,-92.8 687,-92.8 687,-40.8 16,-40.8"/>
</g>
<!-- AuthModule -->
<g id="node1" class="node">
<title>AuthModule</title>
<polygon fill="#8dd3c7" stroke="black" points="678.55,-84.8 675.55,-88.8 654.55,-88.8 651.55,-84.8 591.45,-84.8 591.45,-48.8 678.55,-48.8 678.55,-84.8"/>
<text text-anchor="middle" x="635" y="-62.6" font-family="Times,serif" font-size="14.00">AuthModule</text>
</g>
<!-- AppModule -->
<g id="node7" class="node">
<title>AppModule</title>
<polygon fill="#8dd3c7" stroke="black" points="393.66,-149.8 390.66,-153.8 369.66,-153.8 366.66,-149.8 310.34,-149.8 310.34,-113.8 393.66,-113.8 393.66,-149.8"/>
<text text-anchor="middle" x="352" y="-127.6" font-family="Times,serif" font-size="14.00">AppModule</text>
</g>
<!-- AuthModule&#45;&gt;AppModule -->
<g id="edge1" class="edge">
<title>AuthModule&#45;&gt;AppModule</title>
<path fill="none" stroke="black" d="M635,-85.08C635,-106.12 635,-137.8 635,-137.8 635,-137.8 403.76,-137.8 403.76,-137.8"/>
<polygon fill="black" stroke="black" points="403.76,-134.3 393.76,-137.8 403.76,-141.3 403.76,-134.3"/>
</g>
<!-- LoggerModule -->
<g id="node2" class="node">
<title>LoggerModule</title>
<polygon fill="#8dd3c7" stroke="black" points="572.98,-84.8 569.98,-88.8 548.98,-88.8 545.98,-84.8 473.02,-84.8 473.02,-48.8 572.98,-48.8 572.98,-84.8"/>
<text text-anchor="middle" x="523" y="-62.6" font-family="Times,serif" font-size="14.00">LoggerModule</text>
</g>
<!-- LoggerModule&#45;&gt;AppModule -->
<g id="edge2" class="edge">
<title>LoggerModule&#45;&gt;AppModule</title>
<path fill="none" stroke="black" d="M523,-84.82C523,-102.17 523,-125.8 523,-125.8 523,-125.8 403.83,-125.8 403.83,-125.8"/>
<polygon fill="black" stroke="black" points="403.83,-122.3 393.83,-125.8 403.83,-129.3 403.83,-122.3"/>
</g>
<!-- LoginModule -->
<g id="node3" class="node">
<title>LoginModule</title>
<polygon fill="#8dd3c7" stroke="black" points="455.49,-84.8 452.49,-88.8 431.49,-88.8 428.49,-84.8 362.51,-84.8 362.51,-48.8 455.49,-48.8 455.49,-84.8"/>
<text text-anchor="middle" x="409" y="-62.6" font-family="Times,serif" font-size="14.00">LoginModule</text>
</g>
<!-- LoginModule&#45;&gt;AppModule -->
<g id="edge3" class="edge">
<title>LoginModule&#45;&gt;AppModule</title>
<path fill="none" stroke="black" d="M378.17,-84.91C378.17,-84.91 378.17,-103.79 378.17,-103.79"/>
<polygon fill="black" stroke="black" points="374.67,-103.79 378.17,-113.79 381.67,-103.79 374.67,-103.79"/>
</g>
<!-- MovieModule -->
<g id="node4" class="node">
<title>MovieModule</title>
<polygon fill="#8dd3c7" stroke="black" points="344.1,-84.8 341.1,-88.8 320.1,-88.8 317.1,-84.8 247.9,-84.8 247.9,-48.8 344.1,-48.8 344.1,-84.8"/>
<text text-anchor="middle" x="296" y="-62.6" font-family="Times,serif" font-size="14.00">MovieModule</text>
</g>
<!-- MovieModule&#45;&gt;AppModule -->
<g id="edge4" class="edge">
<title>MovieModule&#45;&gt;AppModule</title>
<path fill="none" stroke="black" d="M327.11,-84.91C327.11,-84.91 327.11,-103.79 327.11,-103.79"/>
<polygon fill="black" stroke="black" points="323.61,-103.79 327.11,-113.79 330.61,-103.79 323.61,-103.79"/>
</g>
<!-- ReviewModule -->
<g id="node5" class="node">
<title>ReviewModule</title>
<polygon fill="#8dd3c7" stroke="black" points="230.31,-84.8 227.31,-88.8 206.31,-88.8 203.31,-84.8 127.69,-84.8 127.69,-48.8 230.31,-48.8 230.31,-84.8"/>
<text text-anchor="middle" x="179" y="-62.6" font-family="Times,serif" font-size="14.00">ReviewModule</text>
</g>
<!-- ReviewModule&#45;&gt;AppModule -->
<g id="edge5" class="edge">
<title>ReviewModule&#45;&gt;AppModule</title>
<path fill="none" stroke="black" d="M179,-84.82C179,-102.17 179,-125.8 179,-125.8 179,-125.8 300.12,-125.8 300.12,-125.8"/>
<polygon fill="black" stroke="black" points="300.12,-129.3 310.12,-125.8 300.12,-122.3 300.12,-129.3"/>
</g>
<!-- UserModule -->
<g id="node6" class="node">
<title>UserModule</title>
<polygon fill="#8dd3c7" stroke="black" points="109.98,-84.8 106.98,-88.8 85.98,-88.8 82.98,-84.8 24.02,-84.8 24.02,-48.8 109.98,-48.8 109.98,-84.8"/>
<text text-anchor="middle" x="67" y="-62.6" font-family="Times,serif" font-size="14.00">UserModule</text>
</g>
<!-- UserModule&#45;&gt;AppModule -->
<g id="edge6" class="edge">
<title>UserModule&#45;&gt;AppModule</title>
<path fill="none" stroke="black" d="M67,-85.08C67,-106.12 67,-137.8 67,-137.8 67,-137.8 300.25,-137.8 300.25,-137.8"/>
<polygon fill="black" stroke="black" points="300.25,-141.3 310.25,-137.8 300.25,-134.3 300.25,-141.3"/>
</g>
</g>
</svg>
