<?xml version="1.0" encoding="UTF-8" standalone="no"?>
<!DOCTYPE svg PUBLIC "-//W3C//DTD SVG 1.1//EN"
 "http://www.w3.org/Graphics/SVG/1.1/DTD/svg11.dtd">
<!-- Generated by graphviz version 2.47.3 (20210619.1520)
 -->
<!-- Title: dependencies Pages: 1 -->
<svg width="312pt" height="174pt"
 viewBox="0.00 0.00 312.00 173.80" xmlns="http://www.w3.org/2000/svg" xmlns:xlink="http://www.w3.org/1999/xlink">
<g id="graph0" class="graph" transform="scale(1 1) rotate(0) translate(4 169.8)">
<title>dependencies</title>
<polygon fill="white" stroke="transparent" points="-4,4 -4,-169.8 308,-169.8 308,4 -4,4"/>
<text text-anchor="middle" x="152" y="-8.2" font-family="sans-serif" font-size="14.00">dependencies</text>
<g id="clust1" class="cluster">
<title>cluster_MovieModule</title>
<polygon fill="none" stroke="black" stroke-dasharray="1,5" points="8,-32.8 8,-157.8 296,-157.8 296,-32.8 8,-32.8"/>
</g>
<g id="clust3" class="cluster">
<title>cluster_MovieModule_imports</title>
<polygon fill="none" stroke="black" points="170,-40.8 170,-92.8 288,-92.8 288,-40.8 170,-40.8"/>
</g>
<g id="clust6" class="cluster">
<title>cluster_MovieModule_providers</title>
<polygon fill="none" stroke="black" points="16,-40.8 16,-92.8 162,-92.8 162,-40.8 16,-40.8"/>
</g>
<!-- ReviewModule -->
<g id="node1" class="node">
<title>ReviewModule</title>
<polygon fill="#8dd3c7" stroke="black" points="280.31,-84.8 277.31,-88.8 256.31,-88.8 253.31,-84.8 177.69,-84.8 177.69,-48.8 280.31,-48.8 280.31,-84.8"/>
<text text-anchor="middle" x="229" y="-62.6" font-family="Times,serif" font-size="14.00">ReviewModule</text>
</g>
<!-- MovieModule -->
<g id="node2" class="node">
<title>MovieModule</title>
<polygon fill="#8dd3c7" stroke="black" points="207.1,-149.8 204.1,-153.8 183.1,-153.8 180.1,-149.8 110.9,-149.8 110.9,-113.8 207.1,-113.8 207.1,-149.8"/>
<text text-anchor="middle" x="159" y="-127.6" font-family="Times,serif" font-size="14.00">MovieModule</text>
</g>
<!-- ReviewModule&#45;&gt;MovieModule -->
<g id="edge1" class="edge">
<title>ReviewModule&#45;&gt;MovieModule</title>
<path fill="none" stroke="black" d="M192.45,-84.91C192.45,-84.91 192.45,-103.79 192.45,-103.79"/>
<polygon fill="black" stroke="black" points="188.95,-103.79 192.45,-113.79 195.95,-103.79 188.95,-103.79"/>
</g>
<!-- MovieService -->
<g id="node3" class="node">
<title>MovieService</title>
<ellipse fill="#fdb462" stroke="black" cx="89" cy="-66.8" rx="65.41" ry="18"/>
<text text-anchor="middle" x="89" y="-62.6" font-family="Times,serif" font-size="14.00">MovieService</text>
</g>
<!-- MovieService&#45;&gt;MovieModule -->
<g id="edge2" class="edge">
<title>MovieService&#45;&gt;MovieModule</title>
<path fill="none" stroke="black" d="M132.58,-80.27C132.58,-80.27 132.58,-103.66 132.58,-103.66"/>
<polygon fill="black" stroke="black" points="129.08,-103.66 132.58,-113.66 136.08,-103.66 129.08,-103.66"/>
</g>
</g>
</svg>
