<?xml version="1.0" encoding="UTF-8" standalone="no"?>
<!DOCTYPE svg PUBLIC "-//W3C//DTD SVG 1.1//EN"
 "http://www.w3.org/Graphics/SVG/1.1/DTD/svg11.dtd">
<!-- Generated by graphviz version 2.47.3 (20210619.1520)
 -->
<!-- Title: dependencies Pages: 1 -->
<svg width="1593pt" height="269pt"
 viewBox="0.00 0.00 1593.00 268.80" xmlns="http://www.w3.org/2000/svg" xmlns:xlink="http://www.w3.org/1999/xlink">
<g id="graph0" class="graph" transform="scale(1 1) rotate(0) translate(4 264.8)">
<title>dependencies</title>
<polygon fill="white" stroke="transparent" points="-4,4 -4,-264.8 1589,-264.8 1589,4 -4,4"/>
<text text-anchor="middle" x="792.5" y="-8.2" font-family="sans-serif" font-size="14.00">dependencies</text>
<g id="clust1" class="cluster">
<title>cluster_AppModule</title>
<polygon fill="none" stroke="black" stroke-dasharray="1,5" points="178,-32.8 178,-244.8 573,-244.8 573,-32.8 178,-32.8"/>
</g>
<g id="clust3" class="cluster">
<title>cluster_AppModule_imports</title>
<polygon fill="none" stroke="black" points="223,-40.8 223,-168.8 565,-168.8 565,-40.8 223,-40.8"/>
</g>
<g id="clust7" class="cluster">
<title>cluster_AuthModule</title>
<polygon fill="none" stroke="black" stroke-dasharray="1,5" points="581,-108.8 581,-176.8 845,-176.8 845,-108.8 581,-108.8"/>
</g>
<g id="clust10" class="cluster">
<title>cluster_AuthModule_exports</title>
<polygon fill="none" stroke="black" points="731,-116.8 731,-168.8 837,-168.8 837,-116.8 731,-116.8"/>
</g>
<g id="clust12" class="cluster">
<title>cluster_AuthModule_providers</title>
<polygon fill="none" stroke="black" points="589,-116.8 589,-168.8 723,-168.8 723,-116.8 589,-116.8"/>
</g>
<g id="clust13" class="cluster">
<title>cluster_LoggerModule</title>
<polygon fill="none" stroke="black" stroke-dasharray="1,5" points="853,-108.8 853,-176.8 1271,-176.8 1271,-108.8 853,-108.8"/>
</g>
<g id="clust16" class="cluster">
<title>cluster_LoggerModule_exports</title>
<polygon fill="none" stroke="black" points="1023,-116.8 1023,-168.8 1263,-168.8 1263,-116.8 1023,-116.8"/>
</g>
<g id="clust18" class="cluster">
<title>cluster_LoggerModule_providers</title>
<polygon fill="none" stroke="black" points="861,-116.8 861,-168.8 1015,-168.8 1015,-116.8 861,-116.8"/>
</g>
<g id="clust19" class="cluster">
<title>cluster_LoginModule</title>
<polygon fill="none" stroke="black" stroke-dasharray="1,5" points="581,-184.8 581,-252.8 857,-252.8 857,-184.8 581,-184.8"/>
</g>
<g id="clust22" class="cluster">
<title>cluster_LoginModule_exports</title>
<polygon fill="none" stroke="black" points="739,-192.8 739,-244.8 849,-244.8 849,-192.8 739,-192.8"/>
</g>
<g id="clust24" class="cluster">
<title>cluster_LoginModule_providers</title>
<polygon fill="none" stroke="black" points="589,-192.8 589,-244.8 731,-244.8 731,-192.8 589,-192.8"/>
</g>
<g id="clust25" class="cluster">
<title>cluster_MovieModule</title>
<polygon fill="none" stroke="black" stroke-dasharray="1,5" points="8,-32.8 8,-100.8 170,-100.8 170,-32.8 8,-32.8"/>
</g>
<g id="clust30" class="cluster">
<title>cluster_MovieModule_providers</title>
<polygon fill="none" stroke="black" points="16,-40.8 16,-92.8 162,-92.8 162,-40.8 16,-40.8"/>
</g>
<g id="clust31" class="cluster">
<title>cluster_ReviewModule</title>
<polygon fill="none" stroke="black" stroke-dasharray="1,5" points="1279,-108.8 1279,-176.8 1577,-176.8 1577,-108.8 1279,-108.8"/>
</g>
<g id="clust34" class="cluster">
<title>cluster_ReviewModule_exports</title>
<polygon fill="none" stroke="black" points="1449,-116.8 1449,-168.8 1569,-168.8 1569,-116.8 1449,-116.8"/>
</g>
<g id="clust36" class="cluster">
<title>cluster_ReviewModule_providers</title>
<polygon fill="none" stroke="black" points="1287,-116.8 1287,-168.8 1441,-168.8 1441,-116.8 1287,-116.8"/>
</g>
<g id="clust37" class="cluster">
<title>cluster_UserModule</title>
<polygon fill="none" stroke="black" stroke-dasharray="1,5" points="865,-184.8 865,-252.8 1125,-252.8 1125,-184.8 865,-184.8"/>
</g>
<g id="clust40" class="cluster">
<title>cluster_UserModule_exports</title>
<polygon fill="none" stroke="black" points="1013,-192.8 1013,-244.8 1117,-244.8 1117,-192.8 1013,-192.8"/>
</g>
<g id="clust42" class="cluster">
<title>cluster_UserModule_providers</title>
<polygon fill="none" stroke="black" points="873,-192.8 873,-244.8 1005,-244.8 1005,-192.8 873,-192.8"/>
</g>
<!-- AuthModule -->
<g id="node1" class="node">
<title>AuthModule</title>
<polygon fill="#8dd3c7" stroke="black" points="318.55,-84.8 315.55,-88.8 294.55,-88.8 291.55,-84.8 231.45,-84.8 231.45,-48.8 318.55,-48.8 318.55,-84.8"/>
<text text-anchor="middle" x="275" y="-62.6" font-family="Times,serif" font-size="14.00">AuthModule</text>
</g>
<!-- LoginModule -->
<g id="node3" class="node">
<title>LoginModule</title>
<polygon fill="#8dd3c7" stroke="black" points="453.49,-160.8 450.49,-164.8 429.49,-164.8 426.49,-160.8 360.51,-160.8 360.51,-124.8 453.49,-124.8 453.49,-160.8"/>
<text text-anchor="middle" x="407" y="-138.6" font-family="Times,serif" font-size="14.00">LoginModule</text>
</g>
<!-- AuthModule&#45;&gt;LoginModule -->
<g id="edge12" class="edge">
<title>AuthModule&#45;&gt;LoginModule</title>
<path fill="none" stroke="black" d="M275.08,-85.08C275.08,-100.75 275.08,-120.8 275.08,-120.8 275.08,-120.8 375.8,-120.8 375.8,-120.8 375.8,-120.8 375.8,-121.18 375.8,-121.18"/>
<polygon fill="black" stroke="black" points="372.3,-114.63 375.8,-124.63 379.3,-114.63 372.3,-114.63"/>
</g>
<!-- UserModule -->
<g id="node6" class="node">
<title>UserModule</title>
<polygon fill="#8dd3c7" stroke="black" points="556.98,-160.8 553.98,-164.8 532.98,-164.8 529.98,-160.8 471.02,-160.8 471.02,-124.8 556.98,-124.8 556.98,-160.8"/>
<text text-anchor="middle" x="514" y="-138.6" font-family="Times,serif" font-size="14.00">UserModule</text>
</g>
<!-- AuthModule&#45;&gt;UserModule -->
<g id="edge19" class="edge">
<title>AuthModule&#45;&gt;UserModule</title>
<path fill="none" stroke="black" d="M289.64,-84.84C289.64,-97.36 289.64,-111.8 289.64,-111.8 289.64,-111.8 514,-111.8 514,-111.8 514,-111.8 514,-114.77 514,-114.77"/>
<polygon fill="black" stroke="black" points="510.5,-114.77 514,-124.77 517.5,-114.77 510.5,-114.77"/>
</g>
<!-- AppModule -->
<g id="node7" class="node">
<title>AppModule</title>
<polygon fill="#8dd3c7" stroke="black" points="302.66,-236.8 299.66,-240.8 278.66,-240.8 275.66,-236.8 219.34,-236.8 219.34,-200.8 302.66,-200.8 302.66,-236.8"/>
<text text-anchor="middle" x="261" y="-214.6" font-family="Times,serif" font-size="14.00">AppModule</text>
</g>
<!-- AuthModule&#45;&gt;AppModule -->
<g id="edge1" class="edge">
<title>AuthModule&#45;&gt;AppModule</title>
<path fill="none" stroke="black" d="M238.59,-84.83C238.59,-84.83 238.59,-190.79 238.59,-190.79"/>
<polygon fill="black" stroke="black" points="235.09,-190.79 238.59,-200.79 242.09,-190.79 235.09,-190.79"/>
</g>
<!-- AuthService  -->
<g id="node8" class="node">
<title>AuthService </title>
<polygon fill="#fb8072" stroke="black" points="828.98,-160.8 739.02,-160.8 739.02,-124.8 828.98,-124.8 828.98,-160.8"/>
<text text-anchor="middle" x="784" y="-138.6" font-family="Times,serif" font-size="14.00">AuthService </text>
</g>
<!-- AuthModule&#45;&gt;AuthService  -->
<g id="edge7" class="edge">
<title>AuthModule&#45;&gt;AuthService </title>
<path fill="none" stroke="black" stroke-dasharray="5,2" d="M304.21,-85.22C304.21,-94.08 304.21,-102.8 304.21,-102.8 304.21,-102.8 784,-102.8 784,-102.8 784,-102.8 784,-114.67 784,-114.67"/>
<polygon fill="black" stroke="black" points="780.5,-114.67 784,-124.67 787.5,-114.67 780.5,-114.67"/>
</g>
<!-- LoggerModule -->
<g id="node2" class="node">
<title>LoggerModule</title>
<polygon fill="#8dd3c7" stroke="black" points="436.98,-84.8 433.98,-88.8 412.98,-88.8 409.98,-84.8 337.02,-84.8 337.02,-48.8 436.98,-48.8 436.98,-84.8"/>
<text text-anchor="middle" x="387" y="-62.6" font-family="Times,serif" font-size="14.00">LoggerModule</text>
</g>
<!-- LoggerModule&#45;&gt;AppModule -->
<g id="edge2" class="edge">
<title>LoggerModule&#45;&gt;AppModule</title>
<path fill="none" stroke="black" d="M351.28,-85C351.28,-124.13 351.28,-212.8 351.28,-212.8 351.28,-212.8 312.7,-212.8 312.7,-212.8"/>
<polygon fill="black" stroke="black" points="312.7,-209.3 302.7,-212.8 312.7,-216.3 312.7,-209.3"/>
</g>
<!-- LogInterceptor  -->
<g id="node10" class="node">
<title>LogInterceptor </title>
<polygon fill="#fb8072" stroke="black" points="1134.96,-160.8 1031.04,-160.8 1031.04,-124.8 1134.96,-124.8 1134.96,-160.8"/>
<text text-anchor="middle" x="1083" y="-138.6" font-family="Times,serif" font-size="14.00">LogInterceptor </text>
</g>
<!-- LoggerModule&#45;&gt;LogInterceptor  -->
<g id="edge9" class="edge">
<title>LoggerModule&#45;&gt;LogInterceptor </title>
<path fill="none" stroke="black" stroke-dasharray="5,2" d="M391.1,-84.96C391.1,-89.84 391.1,-93.8 391.1,-93.8 391.1,-93.8 1083,-93.8 1083,-93.8 1083,-93.8 1083,-114.55 1083,-114.55"/>
<polygon fill="black" stroke="black" points="1079.5,-114.55 1083,-124.55 1086.5,-114.55 1079.5,-114.55"/>
</g>
<!-- LoggerService  -->
<g id="node11" class="node">
<title>LoggerService </title>
<polygon fill="#fb8072" stroke="black" points="1254.91,-160.8 1153.09,-160.8 1153.09,-124.8 1254.91,-124.8 1254.91,-160.8"/>
<text text-anchor="middle" x="1204" y="-138.6" font-family="Times,serif" font-size="14.00">LoggerService </text>
</g>
<!-- LoggerModule&#45;&gt;LoggerService  -->
<g id="edge10" class="edge">
<title>LoggerModule&#45;&gt;LoggerService </title>
<path fill="none" stroke="black" stroke-dasharray="5,2" d="M406.39,-84.92C406.39,-87.77 406.39,-89.8 406.39,-89.8 406.39,-89.8 1204,-89.8 1204,-89.8 1204,-89.8 1204,-114.56 1204,-114.56"/>
<polygon fill="black" stroke="black" points="1200.5,-114.56 1204,-124.56 1207.5,-114.56 1200.5,-114.56"/>
</g>
<!-- LoginModule&#45;&gt;AppModule -->
<g id="edge3" class="edge">
<title>LoginModule&#45;&gt;AppModule</title>
<path fill="none" stroke="black" d="M407,-160.81C407,-183.29 407,-218.8 407,-218.8 407,-218.8 312.84,-218.8 312.84,-218.8"/>
<polygon fill="black" stroke="black" points="312.84,-215.3 302.84,-218.8 312.84,-222.3 312.84,-215.3"/>
</g>
<!-- LoginService  -->
<g id="node13" class="node">
<title>LoginService </title>
<polygon fill="#fb8072" stroke="black" points="841.42,-236.8 746.58,-236.8 746.58,-200.8 841.42,-200.8 841.42,-236.8"/>
<text text-anchor="middle" x="794" y="-214.6" font-family="Times,serif" font-size="14.00">LoginService </text>
</g>
<!-- LoginModule&#45;&gt;LoginService  -->
<g id="edge13" class="edge">
<title>LoginModule&#45;&gt;LoginService </title>
<path fill="none" stroke="black" stroke-dasharray="5,2" d="M383.75,-160.95C383.75,-174.54 383.75,-190.8 383.75,-190.8 383.75,-190.8 787.64,-190.8 787.64,-190.8 787.64,-190.8 787.64,-191.78 787.64,-191.78"/>
<polygon fill="black" stroke="black" points="784.14,-190.59 787.64,-200.59 791.14,-190.59 784.14,-190.59"/>
</g>
<!-- MovieModule -->
<g id="node4" class="node">
<title>MovieModule</title>
<polygon fill="#8dd3c7" stroke="black" points="342.1,-160.8 339.1,-164.8 318.1,-164.8 315.1,-160.8 245.9,-160.8 245.9,-124.8 342.1,-124.8 342.1,-160.8"/>
<text text-anchor="middle" x="294" y="-138.6" font-family="Times,serif" font-size="14.00">MovieModule</text>
</g>
<!-- MovieModule&#45;&gt;AppModule -->
<g id="edge4" class="edge">
<title>MovieModule&#45;&gt;AppModule</title>
<path fill="none" stroke="black" d="M274.39,-160.81C274.39,-160.81 274.39,-190.65 274.39,-190.65"/>
<polygon fill="black" stroke="black" points="270.89,-190.65 274.39,-200.65 277.89,-190.65 270.89,-190.65"/>
</g>
<!-- ReviewModule -->
<g id="node5" class="node">
<title>ReviewModule</title>
<polygon fill="#8dd3c7" stroke="black" points="557.31,-84.8 554.31,-88.8 533.31,-88.8 530.31,-84.8 454.69,-84.8 454.69,-48.8 557.31,-48.8 557.31,-84.8"/>
<text text-anchor="middle" x="506" y="-62.6" font-family="Times,serif" font-size="14.00">ReviewModule</text>
</g>
<!-- ReviewModule&#45;&gt;MovieModule -->
<g id="edge15" class="edge">
<title>ReviewModule&#45;&gt;MovieModule</title>
<path fill="none" stroke="black" d="M460.23,-84.85C460.23,-99.17 460.23,-116.8 460.23,-116.8 460.23,-116.8 327.89,-116.8 327.89,-116.8 327.89,-116.8 327.89,-117.59 327.89,-117.59"/>
<polygon fill="black" stroke="black" points="324.39,-114.74 327.89,-124.74 331.39,-114.74 324.39,-114.74"/>
</g>
<!-- ReviewModule&#45;&gt;AppModule -->
<g id="edge5" class="edge">
<title>ReviewModule&#45;&gt;AppModule</title>
<path fill="none" stroke="black" d="M465.62,-84.92C465.62,-126.43 465.62,-224.8 465.62,-224.8 465.62,-224.8 312.9,-224.8 312.9,-224.8"/>
<polygon fill="black" stroke="black" points="312.9,-221.3 302.9,-224.8 312.9,-228.3 312.9,-221.3"/>
</g>
<!-- ReviewService  -->
<g id="node16" class="node">
<title>ReviewService </title>
<polygon fill="#fb8072" stroke="black" points="1561.24,-160.8 1456.76,-160.8 1456.76,-124.8 1561.24,-124.8 1561.24,-160.8"/>
<text text-anchor="middle" x="1509" y="-138.6" font-family="Times,serif" font-size="14.00">ReviewService </text>
</g>
<!-- ReviewModule&#45;&gt;ReviewService  -->
<g id="edge17" class="edge">
<title>ReviewModule&#45;&gt;ReviewService </title>
<path fill="none" stroke="black" stroke-dasharray="5,2" d="M557.47,-60.8C762.36,-60.8 1509,-60.8 1509,-60.8 1509,-60.8 1509,-114.6 1509,-114.6"/>
<polygon fill="black" stroke="black" points="1505.5,-114.6 1509,-124.6 1512.5,-114.6 1505.5,-114.6"/>
</g>
<!-- UserModule&#45;&gt;AppModule -->
<g id="edge6" class="edge">
<title>UserModule&#45;&gt;AppModule</title>
<path fill="none" stroke="black" d="M535.49,-161.03C535.49,-186.81 535.49,-230.8 535.49,-230.8 535.49,-230.8 312.69,-230.8 312.69,-230.8"/>
<polygon fill="black" stroke="black" points="312.69,-227.3 302.69,-230.8 312.69,-234.3 312.69,-227.3"/>
</g>
<!-- UserService  -->
<g id="node18" class="node">
<title>UserService </title>
<polygon fill="#fb8072" stroke="black" points="1108.9,-236.8 1021.1,-236.8 1021.1,-200.8 1108.9,-200.8 1108.9,-236.8"/>
<text text-anchor="middle" x="1065" y="-214.6" font-family="Times,serif" font-size="14.00">UserService </text>
</g>
<!-- UserModule&#45;&gt;UserService  -->
<g id="edge20" class="edge">
<title>UserModule&#45;&gt;UserService </title>
<path fill="none" stroke="black" stroke-dasharray="5,2" d="M492.51,-161.01C492.51,-166.35 492.51,-170.8 492.51,-170.8 492.51,-170.8 1026.16,-170.8 1026.16,-170.8 1026.16,-170.8 1026.16,-190.65 1026.16,-190.65"/>
<polygon fill="black" stroke="black" points="1022.66,-190.65 1026.16,-200.65 1029.66,-190.65 1022.66,-190.65"/>
</g>
<!-- AuthService -->
<g id="node9" class="node">
<title>AuthService</title>
<ellipse fill="#fdb462" stroke="black" cx="656" cy="-142.8" rx="59.11" ry="18"/>
<text text-anchor="middle" x="656" y="-138.6" font-family="Times,serif" font-size="14.00">AuthService</text>
</g>
<!-- AuthService&#45;&gt;AuthModule -->
<g id="edge8" class="edge">
<title>AuthService&#45;&gt;AuthModule</title>
<path fill="none" stroke="black" d="M656,-124.48C656,-116.01 656,-107.8 656,-107.8 656,-107.8 260.51,-107.8 260.51,-107.8 260.51,-107.8 260.51,-94.9 260.51,-94.9"/>
<polygon fill="black" stroke="black" points="264.01,-94.9 260.51,-84.9 257.01,-94.9 264.01,-94.9"/>
</g>
<!-- LogInterceptor -->
<g id="node12" class="node">
<title>LogInterceptor</title>
<ellipse fill="#fdb462" stroke="black" cx="938" cy="-142.8" rx="68.9" ry="18"/>
<text text-anchor="middle" x="938" y="-138.6" font-family="Times,serif" font-size="14.00">LogInterceptor</text>
</g>
<!-- LogInterceptor&#45;&gt;LoggerModule -->
<g id="edge11" class="edge">
<title>LogInterceptor&#45;&gt;LoggerModule</title>
<path fill="none" stroke="black" d="M938,-124.65C938,-112.53 938,-98.8 938,-98.8 938,-98.8 421.69,-98.8 421.69,-98.8 421.69,-98.8 421.69,-95.04 421.69,-95.04"/>
<polygon fill="black" stroke="black" points="425.19,-95.04 421.69,-85.04 418.19,-95.04 425.19,-95.04"/>
</g>
<!-- LoginService -->
<g id="node14" class="node">
<title>LoginService</title>
<ellipse fill="#fdb462" stroke="black" cx="660" cy="-218.8" rx="63.12" ry="18"/>
<text text-anchor="middle" x="660" y="-214.6" font-family="Times,serif" font-size="14.00">LoginService</text>
</g>
<!-- LoginService&#45;&gt;LoginModule -->
<g id="edge14" class="edge">
<title>LoginService&#45;&gt;LoginModule</title>
<path fill="none" stroke="black" d="M612.95,-206.8C545.73,-206.8 430.25,-206.8 430.25,-206.8 430.25,-206.8 430.25,-170.97 430.25,-170.97"/>
<polygon fill="black" stroke="black" points="433.75,-170.97 430.25,-160.97 426.75,-170.97 433.75,-170.97"/>
</g>
<!-- MovieService -->
<g id="node15" class="node">
<title>MovieService</title>
<ellipse fill="#fdb462" stroke="black" cx="89" cy="-66.8" rx="65.41" ry="18"/>
<text text-anchor="middle" x="89" y="-62.6" font-family="Times,serif" font-size="14.00">MovieService</text>
</g>
<!-- MovieService&#45;&gt;MovieModule -->
<g id="edge16" class="edge">
<title>MovieService&#45;&gt;MovieModule</title>
<path fill="none" stroke="black" d="M89,-84.81C89,-107.29 89,-142.8 89,-142.8 89,-142.8 235.94,-142.8 235.94,-142.8"/>
<polygon fill="black" stroke="black" points="235.94,-146.3 245.94,-142.8 235.94,-139.3 235.94,-146.3"/>
</g>
<!-- ReviewService -->
<g id="node17" class="node">
<title>ReviewService</title>
<ellipse fill="#fdb462" stroke="black" cx="1364" cy="-142.8" rx="69.48" ry="18"/>
<text text-anchor="middle" x="1364" y="-138.6" font-family="Times,serif" font-size="14.00">ReviewService</text>
</g>
<!-- ReviewService&#45;&gt;ReviewModule -->
<g id="edge18" class="edge">
<title>ReviewService&#45;&gt;ReviewModule</title>
<path fill="none" stroke="black" d="M1364,-124.77C1364,-104.03 1364,-72.8 1364,-72.8 1364,-72.8 567.42,-72.8 567.42,-72.8"/>
<polygon fill="black" stroke="black" points="567.42,-69.3 557.42,-72.8 567.42,-76.3 567.42,-69.3"/>
</g>
<!-- UserService -->
<g id="node19" class="node">
<title>UserService</title>
<ellipse fill="#fdb462" stroke="black" cx="939" cy="-218.8" rx="58.44" ry="18"/>
<text text-anchor="middle" x="939" y="-214.6" font-family="Times,serif" font-size="14.00">UserService</text>
</g>
<!-- UserService&#45;&gt;UserModule -->
<g id="edge21" class="edge">
<title>UserService&#45;&gt;UserModule</title>
<path fill="none" stroke="black" d="M939,-200.69C939,-190.9 939,-180.8 939,-180.8 939,-180.8 514,-180.8 514,-180.8 514,-180.8 514,-170.91 514,-170.91"/>
<polygon fill="black" stroke="black" points="517.5,-170.91 514,-160.91 510.5,-170.91 517.5,-170.91"/>
</g>
</g>
</svg>
